<svg width="91" height="27" viewBox="0 0 91 27" fill="none" xmlns="http://www.w3.org/2000/svg">
    <rect width="90.8425" height="26.9834" rx="4.48755" fill="#FF8700" />
    <path d="M23.8881 13.4917C23.8881 9.3517 20.5466 5.9917 16.4295 5.9917C12.3124 5.9917 8.97095 9.3517 8.97095 13.4917C8.97095 17.1217 11.5367 20.1442 14.9378 20.8417V15.7417H13.4461V13.4917H14.9378V11.6167C14.9378 10.1692 16.1088 8.9917 17.5483 8.9917H19.4129V11.2417H17.9212C17.511 11.2417 17.1754 11.5792 17.1754 11.9917V13.4917H19.4129V15.7417H17.1754V20.9542C20.9419 20.5792 23.8881 17.3842 23.8881 13.4917Z" fill="white" />
    <path d="M33.0401 17.9917C32.8571 17.9917 32.7012 17.9372 32.5727 17.8281C32.4441 17.7151 32.3799 17.5574 32.3799 17.3548V10.2729C32.3799 10.0859 32.4422 9.93008 32.5669 9.80542C32.6954 9.68077 32.8473 9.61844 33.0226 9.61844H37.0895C37.2531 9.61844 37.3797 9.67103 37.4693 9.77621C37.5589 9.88139 37.6037 10.0041 37.6037 10.1443C37.6037 10.2846 37.5589 10.4092 37.4693 10.5183C37.3797 10.6235 37.2531 10.6761 37.0895 10.6761H33.7063V13.1536H36.9317C37.0953 13.1536 37.2219 13.2042 37.3115 13.3055C37.4011 13.4068 37.4459 13.5275 37.4459 13.6678C37.4459 13.808 37.4011 13.9288 37.3115 14.03C37.2219 14.1313 37.0953 14.182 36.9317 14.182H33.7063V17.3548C33.7063 17.5574 33.64 17.7151 33.5076 17.8281C33.3752 17.9372 33.2193 17.9917 33.0401 17.9917ZM40.6012 18.0852C39.9935 18.0852 39.4988 17.9391 39.117 17.647C38.7353 17.3548 38.5444 16.9399 38.5444 16.4024C38.5444 16.1725 38.5678 15.9719 38.6145 15.8005C38.6652 15.6252 38.7333 15.4752 38.819 15.3506C38.9047 15.222 39.0274 15.1149 39.1872 15.0292C39.3469 14.9396 39.5163 14.8676 39.6955 14.813C39.8786 14.7585 40.1123 14.7176 40.3967 14.6903C40.685 14.6591 40.9732 14.6397 41.2615 14.6319C41.5536 14.6202 41.9101 14.6144 42.3308 14.6144V14.0417C42.3308 13.2548 41.9373 12.8614 41.1505 12.8614C40.9206 12.8614 40.685 12.8887 40.4434 12.9432C40.2019 12.9938 40.0188 13.0425 39.8942 13.0893C39.7734 13.136 39.6118 13.2023 39.4092 13.288C39.3625 13.3074 39.3138 13.3172 39.2631 13.3172C39.2242 13.3172 39.1872 13.3113 39.1521 13.2996C39.117 13.288 39.0839 13.2724 39.0528 13.2529C39.0216 13.2295 38.9924 13.2042 38.9651 13.1769C38.9417 13.1458 38.9203 13.1146 38.9008 13.0834C38.8853 13.0484 38.8716 13.0133 38.8599 12.9783C38.8522 12.9432 38.8483 12.9081 38.8483 12.8731C38.8483 12.8069 38.8638 12.7484 38.895 12.6978C38.9262 12.6433 38.9749 12.5985 39.0411 12.5634C39.6449 12.2362 40.3616 12.0726 41.1914 12.0726C41.9081 12.0726 42.473 12.2401 42.8859 12.5751C43.2988 12.9101 43.5053 13.4321 43.5053 14.1411V17.4366C43.5053 17.6119 43.4468 17.7502 43.33 17.8515C43.2131 17.9489 43.0768 17.9975 42.9209 17.9975C42.8197 17.9975 42.7262 17.9781 42.6405 17.9391C42.5587 17.8963 42.4885 17.8339 42.4301 17.7521C42.3756 17.6664 42.3483 17.5651 42.3483 17.4483V17.0159C42.0016 17.7288 41.4192 18.0852 40.6012 18.0852ZM40.7181 17.3139C41.1427 17.3139 41.5166 17.1386 41.84 16.788C42.1633 16.4374 42.3249 15.9914 42.3249 15.4499V15.2863C41.951 15.2863 41.6393 15.2922 41.39 15.3038C41.1407 15.3116 40.9089 15.3311 40.6947 15.3623C40.4843 15.3895 40.3188 15.4266 40.198 15.4733C40.0773 15.52 39.9721 15.5843 39.8825 15.6661C39.7968 15.7479 39.7384 15.8453 39.7072 15.9583C39.676 16.0674 39.6605 16.1998 39.6605 16.3556C39.6605 16.6828 39.7559 16.9243 39.9468 17.0802C40.1376 17.236 40.3947 17.3139 40.7181 17.3139ZM47.613 18.0852C47.0443 18.0852 46.5437 17.9508 46.1113 17.682C45.6789 17.4093 45.3517 17.0471 45.1297 16.5952C44.9076 16.1394 44.7966 15.633 44.7966 15.076C44.7966 14.5228 44.9135 14.0203 45.1472 13.5684C45.3809 13.1127 45.7179 12.7504 46.1581 12.4816C46.6021 12.2089 47.1105 12.0726 47.6831 12.0726C48.0259 12.0726 48.3356 12.1193 48.6122 12.2128C48.8927 12.3024 49.1186 12.4115 49.29 12.54C49.438 12.6491 49.512 12.7718 49.512 12.9081C49.512 12.9705 49.4945 13.0289 49.4594 13.0834C49.4283 13.1341 49.3835 13.175 49.3251 13.2061C49.2705 13.2334 49.2082 13.247 49.1381 13.247C49.0524 13.247 48.9686 13.2237 48.8868 13.1769C48.5479 12.9705 48.172 12.8672 47.7591 12.8672C47.2176 12.8672 46.7833 13.0698 46.4561 13.4749C46.1327 13.8762 45.9711 14.4118 45.9711 15.0818C45.9711 15.4908 46.0334 15.8589 46.1581 16.1862C46.2827 16.5134 46.4775 16.7783 46.7424 16.9808C47.0112 17.1834 47.3306 17.2847 47.7007 17.2847C48.2149 17.2847 48.6414 17.1659 48.9803 16.9282C49.0232 16.8971 49.066 16.8757 49.1089 16.864C49.1556 16.8484 49.2004 16.8406 49.2432 16.8406C49.2939 16.8406 49.3406 16.8503 49.3835 16.8698C49.4263 16.8854 49.4633 16.9088 49.4945 16.9399C49.5296 16.9711 49.5549 17.01 49.5705 17.0568C49.5899 17.0996 49.5997 17.1444 49.5997 17.1912C49.5997 17.2535 49.5822 17.3178 49.5471 17.384C49.5159 17.4502 49.4653 17.5126 49.3952 17.571C48.9823 17.9138 48.3882 18.0852 47.613 18.0852ZM53.3627 18.0852C52.4979 18.0774 51.7928 17.8028 51.2475 17.2613C50.706 16.7159 50.4353 15.9758 50.4353 15.0409C50.4353 14.6436 50.4976 14.2677 50.6222 13.9132C50.7508 13.5587 50.9319 13.2451 51.1657 12.9724C51.3994 12.6958 51.6954 12.4777 52.0538 12.318C52.4161 12.1544 52.8173 12.0726 53.2575 12.0726C53.7055 12.0726 54.1009 12.1485 54.4437 12.3005C54.7904 12.4524 55.065 12.6608 55.2676 12.9257C55.474 13.1906 55.6298 13.4886 55.735 13.8197C55.8441 14.1469 55.9025 14.5053 55.9103 14.8948C55.9103 15.0234 55.8791 15.1285 55.8168 15.2104C55.7545 15.2922 55.661 15.3331 55.5363 15.3331H51.6214C51.637 15.9797 51.8103 16.4608 52.1415 16.7763C52.4726 17.0919 52.9069 17.2535 53.4445 17.2613C53.7639 17.2613 54.0561 17.2029 54.321 17.086C54.5859 16.9653 54.8566 16.8036 55.1332 16.601C55.1721 16.5738 55.2091 16.5543 55.2442 16.5426C55.2831 16.527 55.3221 16.5192 55.361 16.5192C55.4273 16.5192 55.4876 16.5387 55.5422 16.5777C55.6006 16.6127 55.6454 16.6614 55.6766 16.7237C55.7116 16.7861 55.7292 16.8523 55.7292 16.9224C55.7292 16.9886 55.7136 17.0529 55.6824 17.1152C55.6552 17.1776 55.6104 17.234 55.548 17.2847C54.9442 17.8184 54.2158 18.0852 53.3627 18.0852ZM51.6331 14.6202H54.8936C54.8585 14.1138 54.7105 13.697 54.4495 13.3698C54.1885 13.0386 53.8087 12.8731 53.3101 12.8731C53.053 12.8731 52.8193 12.9237 52.6089 13.025C52.3986 13.1224 52.2252 13.2568 52.0889 13.4282C51.9564 13.5957 51.8512 13.7807 51.7733 13.9833C51.6993 14.1859 51.6526 14.3982 51.6331 14.6202ZM60.3979 18.0852C59.4668 18.0852 58.8085 17.7268 58.4229 17.01V17.4249C58.4229 17.608 58.3722 17.7482 58.2709 17.8456C58.1697 17.9391 58.0255 17.9859 57.8385 17.9859C57.6788 17.9859 57.5405 17.9372 57.4237 17.8398C57.3068 17.7385 57.2484 17.6002 57.2484 17.4249V10.1735C57.2484 9.99825 57.3049 9.86386 57.4178 9.77037C57.5347 9.67298 57.673 9.62429 57.8327 9.62429C57.9924 9.62429 58.1307 9.67298 58.2476 9.77037C58.3644 9.86386 58.4229 9.99825 58.4229 10.1735V13.0951C58.8007 12.4134 59.4298 12.0726 60.3102 12.0726C61.1127 12.0726 61.7476 12.3491 62.2151 12.9023C62.6825 13.4555 62.9163 14.1683 62.9163 15.0409C62.9163 15.4499 62.8617 15.8356 62.7527 16.1978C62.6436 16.5601 62.4858 16.8834 62.2794 17.1678C62.0768 17.4483 61.8138 17.6723 61.4905 17.8398C61.1672 18.0034 60.803 18.0852 60.3979 18.0852ZM60.1583 17.2847C60.392 17.2808 60.6024 17.2321 60.7893 17.1386C60.9802 17.0451 61.1321 16.9243 61.2451 16.7763C61.362 16.6244 61.4574 16.4491 61.5314 16.2504C61.6093 16.0518 61.6639 15.855 61.695 15.6603C61.7262 15.4616 61.7418 15.261 61.7418 15.0584C61.7418 14.7896 61.7126 14.5325 61.6541 14.2871C61.5996 14.0417 61.512 13.8099 61.3912 13.5918C61.2743 13.3737 61.1068 13.2003 60.8887 13.0718C60.6705 12.9393 60.4134 12.8731 60.1174 12.8731C59.8798 12.8731 59.6636 12.914 59.4688 12.9958C59.2779 13.0776 59.1182 13.1886 58.9897 13.3289C58.865 13.4652 58.7579 13.6288 58.6683 13.8197C58.5826 14.0067 58.5202 14.2034 58.4813 14.4098C58.4462 14.6163 58.4287 14.8325 58.4287 15.0584C58.4287 15.4012 58.4579 15.7031 58.5164 15.9641C58.5748 16.2251 58.6683 16.4569 58.7968 16.6595C58.9254 16.862 59.1026 17.0178 59.3286 17.1269C59.5584 17.2321 59.835 17.2847 60.1583 17.2847ZM66.8546 17.2847C67.4233 17.2808 67.8654 17.0841 68.181 16.6945C68.4965 16.305 68.6542 15.7674 68.6542 15.0818C68.6542 14.4001 68.4945 13.8625 68.1751 13.4691C67.8557 13.0718 67.4155 12.8731 66.8546 12.8731C66.2897 12.8731 65.8476 13.0698 65.5282 13.4632C65.2126 13.8567 65.0549 14.3962 65.0549 15.0818C65.0549 15.7635 65.2146 16.3011 65.534 16.6945C65.8534 17.088 66.2936 17.2847 66.8546 17.2847ZM66.8546 18.0852C66.3832 18.0852 65.9567 18.0053 65.5749 17.8456C65.1931 17.682 64.8815 17.4619 64.64 17.1853C64.3985 16.9088 64.2134 16.5913 64.0849 16.2329C63.9563 15.8745 63.8921 15.4908 63.8921 15.0818C63.8921 14.6689 63.9563 14.2832 64.0849 13.9249C64.2134 13.5626 64.3985 13.2432 64.64 12.9666C64.8854 12.69 65.197 12.4719 65.5749 12.3121C65.9567 12.1524 66.3832 12.0726 66.8546 12.0726C67.4739 12.0726 68.0096 12.2089 68.4614 12.4816C68.9172 12.7543 69.2561 13.1166 69.4781 13.5684C69.7041 14.0164 69.817 14.5209 69.817 15.0818C69.817 15.4869 69.7528 15.8706 69.6242 16.2329C69.4957 16.5913 69.3106 16.9088 69.0691 17.1853C68.8276 17.4619 68.516 17.682 68.1342 17.8456C67.7525 18.0053 67.3259 18.0852 66.8546 18.0852ZM73.7144 17.2847C74.2832 17.2808 74.7253 17.0841 75.0408 16.6945C75.3564 16.305 75.5141 15.7674 75.5141 15.0818C75.5141 14.4001 75.3544 13.8625 75.035 13.4691C74.7156 13.0718 74.2754 12.8731 73.7144 12.8731C73.1496 12.8731 72.7075 13.0698 72.388 13.4632C72.0725 13.8567 71.9147 14.3962 71.9147 15.0818C71.9147 15.7635 72.0745 16.3011 72.3939 16.6945C72.7133 17.088 73.1535 17.2847 73.7144 17.2847ZM73.7144 18.0852C73.2431 18.0852 72.8165 18.0053 72.4348 17.8456C72.053 17.682 71.7414 17.4619 71.4999 17.1853C71.2584 16.9088 71.0733 16.5913 70.9448 16.2329C70.8162 15.8745 70.7519 15.4908 70.7519 15.0818C70.7519 14.6689 70.8162 14.2832 70.9448 13.9249C71.0733 13.5626 71.2584 13.2432 71.4999 12.9666C71.7453 12.69 72.0569 12.4719 72.4348 12.3121C72.8165 12.1524 73.2431 12.0726 73.7144 12.0726C74.3338 12.0726 74.8694 12.2089 75.3213 12.4816C75.7771 12.7543 76.116 13.1166 76.338 13.5684C76.5639 14.0164 76.6769 14.5209 76.6769 15.0818C76.6769 15.4869 76.6126 15.8706 76.4841 16.2329C76.3555 16.5913 76.1705 16.9088 75.929 17.1853C75.6875 17.4619 75.3758 17.682 74.9941 17.8456C74.6123 18.0053 74.1858 18.0852 73.7144 18.0852ZM78.5643 17.9917C78.4045 17.9917 78.2682 17.9411 78.1552 17.8398C78.0423 17.7346 77.9858 17.5885 77.9858 17.4015V10.2086C77.9858 10.0294 78.0442 9.88723 78.1611 9.78205C78.2779 9.67687 78.4182 9.62429 78.5818 9.62429C78.7376 9.62429 78.872 9.67687 78.985 9.78205C79.1018 9.88723 79.1603 10.0294 79.1603 10.2086V14.6553L81.7488 12.2187C81.7955 12.1758 81.8462 12.1446 81.9007 12.1252C81.9552 12.1018 82.0098 12.0901 82.0643 12.0901C82.2007 12.0901 82.3214 12.1446 82.4266 12.2537C82.5318 12.3628 82.5844 12.4855 82.5844 12.6218C82.5844 12.7465 82.5357 12.8536 82.4383 12.9432L80.4282 14.7955L82.6603 17.1444C82.7577 17.2457 82.8064 17.3587 82.8064 17.4833C82.8064 17.5729 82.7811 17.6586 82.7304 17.7404C82.6798 17.8222 82.6116 17.8885 82.5259 17.9391C82.4402 17.9859 82.3506 18.0092 82.2571 18.0092C82.2143 18.0092 82.1695 18.0034 82.1227 17.9917C82.0799 17.98 82.037 17.9605 81.9942 17.9333C81.9513 17.906 81.9104 17.8709 81.8715 17.8281L79.1603 14.9649V17.4015C79.1603 17.5846 79.0999 17.7288 78.9791 17.8339C78.8623 17.9391 78.724 17.9917 78.5643 17.9917Z" fill="white" />
</svg>