<svg width="86" height="27" viewBox="0 0 86 27" fill="none" xmlns="http://www.w3.org/2000/svg">
    <rect x="0.643433" width="84.8425" height="26.9834" rx="4.48755" fill="#070304"/>
    <g clip-path="url(#clip0_4712_1141)">
    <path d="M17.073 4.85205C12.3275 4.85205 8.48071 8.72025 8.48071 13.4921C8.48071 18.2639 12.3275 22.1321 17.073 22.1321C21.8184 22.1321 25.6652 18.2639 25.6652 13.4921C25.6652 8.72025 21.8184 4.85205 17.073 4.85205ZM14.9697 17.0732H13.2297V11.4428H14.9697V17.0732ZM14.089 10.7516C13.5394 10.7516 13.1841 10.3601 13.1841 9.87585C13.1841 9.38175 13.5501 9.00195 14.1113 9.00195C14.6725 9.00195 15.0162 9.38175 15.0269 9.87585C15.0269 10.3601 14.6725 10.7516 14.089 10.7516ZM21.3244 17.0732H19.5844V13.9529C19.5844 13.2266 19.332 12.7334 18.7028 12.7334C18.2222 12.7334 17.9367 13.0673 17.8105 13.3886C17.7639 13.5029 17.7523 13.6649 17.7523 13.826V17.0723H16.0115V13.2383C16.0115 12.5354 15.9891 11.9477 15.9658 11.4419H17.4775L17.5572 12.224H17.5921C17.8212 11.8568 18.3824 11.315 19.3213 11.315C20.466 11.315 21.3244 12.0863 21.3244 13.7441V17.0732Z" fill="white"/>
    </g>
    <path d="M33.7011 17.9917C33.5219 17.9917 33.3642 17.9274 33.2278 17.7989C33.0954 17.6703 33.0291 17.5145 33.0291 17.3314V10.267C33.0291 10.0645 33.0954 9.90671 33.2278 9.79374C33.3603 9.68077 33.518 9.62429 33.7011 9.62429C33.8803 9.62429 34.0342 9.68077 34.1627 9.79374C34.2913 9.90671 34.3555 10.0645 34.3555 10.267V16.9399H37.9257C38.0893 16.9399 38.2159 16.9925 38.3055 17.0977C38.399 17.2029 38.4458 17.3256 38.4458 17.4658C38.4458 17.6061 38.399 17.7288 38.3055 17.8339C38.2159 17.9391 38.0893 17.9917 37.9257 17.9917H33.7011ZM39.9942 17.9917C39.8306 17.9917 39.6923 17.9411 39.5793 17.8398C39.4664 17.7385 39.4099 17.5924 39.4099 17.4015V12.7562C39.4099 12.5731 39.4683 12.429 39.5852 12.3238C39.7059 12.2187 39.8462 12.1661 40.0059 12.1661C40.1617 12.1661 40.298 12.2187 40.4149 12.3238C40.5318 12.429 40.5902 12.5731 40.5902 12.7562V17.4015C40.5902 17.5846 40.5298 17.7288 40.4091 17.8339C40.2922 17.9391 40.1539 17.9917 39.9942 17.9917ZM40 10.8864C39.7819 10.8864 39.6047 10.8241 39.4683 10.6994C39.332 10.5709 39.2638 10.4034 39.2638 10.1969C39.2638 9.99046 39.332 9.82295 39.4683 9.6944C39.6047 9.56585 39.7838 9.50158 40.0059 9.50158C40.224 9.50158 40.3993 9.56585 40.5318 9.6944C40.6642 9.82295 40.7304 9.99046 40.7304 10.1969C40.7304 10.4034 40.6623 10.5709 40.5259 10.6994C40.3935 10.8241 40.2182 10.8864 40 10.8864ZM42.8398 17.9917C42.6801 17.9917 42.5418 17.943 42.425 17.8456C42.312 17.7443 42.2555 17.6061 42.2555 17.4308V12.7212C42.2555 12.5459 42.3139 12.4115 42.4308 12.318C42.5477 12.2206 42.686 12.1719 42.8457 12.1719C43.0054 12.1719 43.1417 12.2187 43.2547 12.3121C43.3716 12.4056 43.43 12.5361 43.43 12.7036V13.1185C43.5858 12.7796 43.8293 12.5205 44.1604 12.3414C44.4954 12.1622 44.8849 12.0726 45.329 12.0726C45.629 12.0726 45.9036 12.1174 46.1529 12.207C46.4061 12.2927 46.6301 12.4251 46.8249 12.6043C47.0235 12.7796 47.1774 13.0153 47.2865 13.3113C47.3955 13.6035 47.4501 13.9404 47.4501 14.3222V17.4308C47.4501 17.6061 47.3897 17.7443 47.2689 17.8456C47.1521 17.943 47.0138 17.9917 46.8541 17.9917C46.6944 17.9917 46.5561 17.943 46.4392 17.8456C46.3262 17.7443 46.2698 17.6061 46.2698 17.4308V14.3105C46.2698 13.8431 46.1568 13.4866 45.9309 13.2412C45.7049 12.9958 45.3991 12.8731 45.0135 12.8731C44.5811 12.8731 44.213 13.0347 43.9091 13.3581C43.6053 13.6775 43.4456 14.1099 43.43 14.6553V17.4308C43.43 17.6061 43.3716 17.7443 43.2547 17.8456C43.1378 17.943 42.9995 17.9917 42.8398 17.9917ZM49.6763 17.9917C49.5166 17.9917 49.3803 17.9411 49.2673 17.8398C49.1543 17.7346 49.0979 17.5885 49.0979 17.4015V10.2086C49.0979 10.0294 49.1563 9.88723 49.2731 9.78205C49.39 9.67687 49.5302 9.62429 49.6939 9.62429C49.8497 9.62429 49.9841 9.67687 50.097 9.78205C50.2139 9.88723 50.2723 10.0294 50.2723 10.2086V14.6553L52.8609 12.2187C52.9076 12.1758 52.9582 12.1446 53.0128 12.1252C53.0673 12.1018 53.1218 12.0901 53.1764 12.0901C53.3127 12.0901 53.4335 12.1446 53.5387 12.2537C53.6438 12.3628 53.6964 12.4855 53.6964 12.6218C53.6964 12.7465 53.6477 12.8536 53.5503 12.9432L51.5403 14.7955L53.7724 17.1444C53.8698 17.2457 53.9185 17.3587 53.9185 17.4833C53.9185 17.5729 53.8931 17.6586 53.8425 17.7404C53.7919 17.8222 53.7237 17.8885 53.638 17.9391C53.5523 17.9859 53.4627 18.0092 53.3692 18.0092C53.3264 18.0092 53.2816 18.0034 53.2348 17.9917C53.192 17.98 53.1491 17.9605 53.1063 17.9333C53.0634 17.906 53.0225 17.8709 52.9836 17.8281L50.2723 14.9649V17.4015C50.2723 17.5846 50.212 17.7288 50.0912 17.8339C49.9743 17.9391 49.836 17.9917 49.6763 17.9917ZM57.6055 18.0852C56.7407 18.0774 56.0356 17.8028 55.4903 17.2613C54.9488 16.7159 54.6781 15.9758 54.6781 15.0409C54.6781 14.6436 54.7404 14.2677 54.8651 13.9132C54.9936 13.5587 55.1747 13.2451 55.4085 12.9724C55.6422 12.6958 55.9383 12.4777 56.2966 12.318C56.6589 12.1544 57.0601 12.0726 57.5003 12.0726C57.9483 12.0726 58.3437 12.1485 58.6865 12.3005C59.0332 12.4524 59.3078 12.6608 59.5104 12.9257C59.7168 13.1906 59.8727 13.4886 59.9778 13.8197C60.0869 14.1469 60.1453 14.5053 60.1531 14.8948C60.1531 15.0234 60.122 15.1285 60.0596 15.2104C59.9973 15.2922 59.9038 15.3331 59.7792 15.3331H55.8642C55.8798 15.9797 56.0532 16.4608 56.3843 16.7763C56.7154 17.0919 57.1497 17.2535 57.6873 17.2613C58.0067 17.2613 58.2989 17.2029 58.5638 17.086C58.8287 16.9653 59.0994 16.8036 59.376 16.601C59.4149 16.5738 59.4519 16.5543 59.487 16.5426C59.526 16.527 59.5649 16.5192 59.6039 16.5192C59.6701 16.5192 59.7305 16.5387 59.785 16.5777C59.8434 16.6127 59.8882 16.6614 59.9194 16.7237C59.9545 16.7861 59.972 16.8523 59.972 16.9224C59.972 16.9886 59.9564 17.0529 59.9252 17.1152C59.898 17.1776 59.8532 17.234 59.7908 17.2847C59.1871 17.8184 58.4586 18.0852 57.6055 18.0852ZM55.8759 14.6202H59.1364C59.1014 14.1138 58.9533 13.697 58.6923 13.3698C58.4313 13.0386 58.0515 12.8731 57.5529 12.8731C57.2958 12.8731 57.0621 12.9237 56.8517 13.025C56.6414 13.1224 56.468 13.2568 56.3317 13.4282C56.1992 13.5957 56.0941 13.7807 56.0162 13.9833C55.9421 14.1859 55.8954 14.3982 55.8759 14.6202ZM63.6415 18.0852C63.2364 18.0852 62.8721 18.0034 62.5488 17.8398C62.2255 17.6723 61.9606 17.4483 61.7542 17.1678C61.5516 16.8834 61.3958 16.5601 61.2867 16.1978C61.1776 15.8356 61.1231 15.4499 61.1231 15.0409C61.1231 14.1683 61.3568 13.4555 61.8243 12.9023C62.2917 12.3491 62.9267 12.0726 63.7291 12.0726C64.6095 12.0726 65.2386 12.4134 65.6165 13.0951V10.1735C65.6165 9.99825 65.6749 9.86386 65.7918 9.77037C65.9086 9.67298 66.0469 9.62429 66.2066 9.62429C66.3664 9.62429 66.5027 9.67298 66.6157 9.77037C66.7325 9.86386 66.791 9.99825 66.791 10.1735V17.4249C66.791 17.6002 66.7325 17.7385 66.6157 17.8398C66.4988 17.9372 66.3605 17.9859 66.2008 17.9859C66.0138 17.9859 65.8697 17.9391 65.7684 17.8456C65.6671 17.7482 65.6165 17.608 65.6165 17.4249V17.01C65.2308 17.7268 64.5725 18.0852 63.6415 18.0852ZM63.8811 17.2847C64.2044 17.2847 64.479 17.2321 64.705 17.1269C64.9348 17.0178 65.114 16.862 65.2425 16.6595C65.3711 16.4569 65.4646 16.2251 65.523 15.9641C65.5814 15.7031 65.6106 15.4012 65.6106 15.0584C65.6106 14.8325 65.5912 14.6163 65.5522 14.4098C65.5172 14.2034 65.4548 14.0067 65.3652 13.8197C65.2795 13.6288 65.1724 13.4652 65.0439 13.3289C64.9192 13.1886 64.7595 13.0776 64.5647 12.9958C64.3738 12.914 64.1596 12.8731 63.922 12.8731C63.6259 12.8731 63.3688 12.9393 63.1507 13.0718C62.9325 13.2003 62.7631 13.3737 62.6423 13.5918C62.5255 13.8099 62.4378 14.0417 62.3794 14.2871C62.3248 14.5325 62.2976 14.7896 62.2976 15.0584C62.2976 15.3194 62.3229 15.5726 62.3735 15.818C62.4281 16.0596 62.5118 16.2952 62.6248 16.5251C62.7378 16.751 62.9014 16.9341 63.1156 17.0743C63.3338 17.2107 63.5889 17.2808 63.8811 17.2847ZM69.1341 17.9917C68.9744 17.9917 68.838 17.9411 68.7251 17.8398C68.6121 17.7385 68.5556 17.5924 68.5556 17.4015V10.2086C68.5556 10.0294 68.614 9.88723 68.7309 9.78205C68.8478 9.67687 68.986 9.62429 69.1458 9.62429C69.3055 9.62429 69.4438 9.67687 69.5606 9.78205C69.6775 9.88723 69.7359 10.0294 69.7359 10.2086V17.4015C69.7359 17.5846 69.6755 17.7288 69.5548 17.8339C69.434 17.9391 69.2938 17.9917 69.1341 17.9917ZM72.0323 17.9917C71.8726 17.9917 71.7343 17.943 71.6174 17.8456C71.5045 17.7443 71.448 17.6061 71.448 17.4308V12.7212C71.448 12.5459 71.5064 12.4115 71.6233 12.318C71.7401 12.2206 71.8784 12.1719 72.0381 12.1719C72.1978 12.1719 72.3342 12.2187 72.4471 12.3121C72.564 12.4056 72.6224 12.5361 72.6224 12.7036V13.1185C72.7783 12.7796 73.0217 12.5205 73.3528 12.3414C73.6878 12.1622 74.0774 12.0726 74.5215 12.0726C74.8214 12.0726 75.096 12.1174 75.3454 12.207C75.5986 12.2927 75.8226 12.4251 76.0173 12.6043C76.216 12.7796 76.3699 13.0153 76.4789 13.3113C76.588 13.6035 76.6425 13.9404 76.6425 14.3222V17.4308C76.6425 17.6061 76.5822 17.7443 76.4614 17.8456C76.3445 17.943 76.2063 17.9917 76.0465 17.9917C75.8868 17.9917 75.7485 17.943 75.6317 17.8456C75.5187 17.7443 75.4622 17.6061 75.4622 17.4308V14.3105C75.4622 13.8431 75.3493 13.4866 75.1233 13.2412C74.8974 12.9958 74.5916 12.8731 74.2059 12.8731C73.7735 12.8731 73.4054 13.0347 73.1016 13.3581C72.7977 13.6775 72.638 14.1099 72.6224 14.6553V17.4308C72.6224 17.6061 72.564 17.7443 72.4471 17.8456C72.3303 17.943 72.192 17.9917 72.0323 17.9917Z" fill="white"/>
    <defs>
    <clipPath id="clip0_4712_1141">
    <rect width="17.9006" height="18" fill="white" transform="translate(8.12268 4.4917)"/>
    </clipPath>
    </defs>
    </svg>
    