<svg width="80" height="27" viewBox="0 0 80 27" fill="none" xmlns="http://www.w3.org/2000/svg">
    <rect x="0.321777" width="78.8425" height="26.9834" rx="4.48755" fill="#070304" />
    <path d="M16.7513 5.6167C12.4265 5.6167 8.9198 9.14287 8.9198 13.4917C8.9198 17.8405 12.4265 21.3667 16.7513 21.3667C21.0761 21.3667 24.5828 17.8405 24.5828 13.4917C24.5828 9.14287 21.0761 5.6167 16.7513 5.6167ZM20.515 11.5528C20.5202 11.6355 20.5202 11.7216 20.5202 11.806C20.5202 14.3864 18.5658 17.3589 14.9945 17.3589C13.8931 17.3589 12.8723 17.0372 12.0122 16.4835C12.1695 16.5011 12.3199 16.5081 12.4807 16.5081C13.3897 16.5081 14.2253 16.1987 14.8913 15.6749C14.0382 15.6573 13.3215 15.0948 13.0768 14.3214C13.3757 14.3653 13.6449 14.3653 13.9526 14.2862C13.5133 14.1965 13.1185 13.9566 12.8352 13.6073C12.5519 13.2581 12.3976 12.8209 12.3985 12.3702V12.3456C12.6555 12.4915 12.9579 12.5812 13.2743 12.5935C13.0083 12.4152 12.7902 12.1737 12.6393 11.8904C12.4883 11.6071 12.4092 11.2907 12.409 10.9692C12.409 10.6054 12.5034 10.2731 12.673 9.98487C13.1605 10.5884 13.7689 11.082 14.4586 11.4336C15.1483 11.7852 15.9038 11.9869 16.6761 12.0257C16.4017 10.6985 17.3876 9.62451 18.5728 9.62451C19.1322 9.62451 19.6357 9.86006 19.9905 10.2397C20.4293 10.1571 20.8488 9.9919 21.2229 9.77041C21.0778 10.2222 20.7737 10.6036 20.3699 10.8444C20.7614 10.8022 21.139 10.6933 21.4886 10.5403C21.2247 10.9306 20.8943 11.2769 20.515 11.5528Z" fill="white" />
    <path d="M35.1441 17.9975C34.9649 17.9975 34.8091 17.9411 34.6766 17.8281C34.5442 17.7112 34.478 17.5515 34.478 17.349V10.6761H32.3627C32.1991 10.6761 32.0706 10.6235 31.9771 10.5183C31.8836 10.4131 31.8369 10.2904 31.8369 10.1502C31.8369 10.006 31.8836 9.88139 31.9771 9.77621C32.0706 9.67103 32.1991 9.61844 32.3627 9.61844H37.9079C38.0715 9.61844 38.2001 9.67103 38.2936 9.77621C38.387 9.88139 38.4338 10.0041 38.4338 10.1443C38.4338 10.2885 38.387 10.4131 38.2936 10.5183C38.2001 10.6235 38.0715 10.6761 37.9079 10.6761H35.8102V17.349C35.8102 17.5515 35.744 17.7112 35.6115 17.8281C35.4791 17.9411 35.3233 17.9975 35.1441 17.9975ZM45.8429 17.9917C45.4456 17.9917 45.1632 17.7521 44.9957 17.273L43.605 13.288L42.2085 17.273C42.0449 17.7521 41.7644 17.9917 41.3671 17.9917C40.997 17.9917 40.7418 17.7736 40.6016 17.3373L39.0941 12.8789C39.0707 12.8127 39.059 12.7465 39.059 12.6803C39.059 12.6374 39.0649 12.5965 39.0765 12.5576C39.0882 12.5147 39.1038 12.4777 39.1233 12.4465C39.1428 12.4115 39.1642 12.3803 39.1876 12.353C39.2148 12.3258 39.244 12.3024 39.2752 12.2829C39.3103 12.2596 39.3453 12.2401 39.3804 12.2245C39.4154 12.2089 39.4525 12.1972 39.4914 12.1894C39.5304 12.1816 39.5693 12.1778 39.6083 12.1778C39.7212 12.1778 39.8245 12.2089 39.918 12.2712C40.0114 12.3336 40.0777 12.4271 40.1166 12.5517L41.4606 16.7588L42.8337 12.7971C42.9778 12.3764 43.2349 12.1661 43.605 12.1661C43.9712 12.1661 44.2263 12.3764 44.3705 12.7971L45.7436 16.7588L47.0934 12.5517C47.1323 12.4271 47.1966 12.3336 47.2862 12.2712C47.3797 12.2089 47.4829 12.1778 47.5959 12.1778C47.6348 12.1778 47.6738 12.1816 47.7127 12.1894C47.7517 12.1972 47.7887 12.2089 47.8238 12.2245C47.8627 12.2401 47.8978 12.2596 47.9289 12.2829C47.964 12.3024 47.9932 12.3258 48.0166 12.353C48.0439 12.3803 48.0672 12.4115 48.0867 12.4465C48.1062 12.4777 48.1218 12.5147 48.1335 12.5576C48.1451 12.5965 48.151 12.6374 48.151 12.6803C48.151 12.7465 48.1393 12.8127 48.1159 12.8789L46.6084 17.3373C46.4643 17.7736 46.2091 17.9917 45.8429 17.9917ZM50.0149 17.9917C49.8513 17.9917 49.7131 17.9411 49.6001 17.8398C49.4871 17.7385 49.4306 17.5924 49.4306 17.4015V12.7562C49.4306 12.5731 49.4891 12.429 49.6059 12.3238C49.7267 12.2187 49.8669 12.1661 50.0266 12.1661C50.1825 12.1661 50.3188 12.2187 50.4357 12.3238C50.5525 12.429 50.611 12.5731 50.611 12.7562V17.4015C50.611 17.5846 50.5506 17.7288 50.4298 17.8339C50.313 17.9391 50.1747 17.9917 50.0149 17.9917ZM50.0208 10.8864C49.8026 10.8864 49.6254 10.8241 49.4891 10.6994C49.3527 10.5709 49.2846 10.4034 49.2846 10.1969C49.2846 9.99046 49.3527 9.82295 49.4891 9.6944C49.6254 9.56585 49.8046 9.50158 50.0266 9.50158C50.2448 9.50158 50.4201 9.56585 50.5525 9.6944C50.685 9.82295 50.7512 9.99046 50.7512 10.1969C50.7512 10.4034 50.683 10.5709 50.5467 10.6994C50.4142 10.8241 50.2389 10.8864 50.0208 10.8864ZM54.2512 18.0618C53.776 18.0618 53.4001 17.9118 53.1235 17.6119C52.8469 17.3119 52.7086 16.8718 52.7086 16.2913V12.99H52.0308C51.8906 12.99 51.7835 12.9549 51.7095 12.8848C51.6355 12.8108 51.5984 12.7173 51.5984 12.6043C51.5984 12.4913 51.6335 12.3998 51.7036 12.3297C51.7776 12.2596 51.8848 12.2245 52.025 12.2245H52.7086L52.8664 10.6059C52.8859 10.4579 52.9482 10.3352 53.0534 10.2378C53.1625 10.1404 53.293 10.0917 53.4449 10.0917C53.5734 10.0917 53.6786 10.1307 53.7604 10.2086C53.8461 10.2865 53.889 10.4014 53.889 10.5533V12.2245H54.9349C55.0751 12.2245 55.1803 12.2615 55.2504 12.3355C55.3205 12.4095 55.3556 12.503 55.3556 12.616C55.3556 12.729 55.3205 12.8205 55.2504 12.8906C55.1803 12.9568 55.0751 12.99 54.9349 12.99H53.889V16.0459C53.889 16.4199 53.9416 16.6965 54.0467 16.8757C54.1519 17.0548 54.3233 17.1444 54.5609 17.1444C54.5804 17.1444 54.5999 17.1444 54.6194 17.1444L55.0342 17.1211C55.0459 17.1211 55.0576 17.1211 55.0693 17.1211C55.2134 17.1211 55.3264 17.1678 55.4082 17.2613C55.4939 17.3509 55.5367 17.4561 55.5367 17.5768C55.5367 17.6392 55.527 17.6956 55.5075 17.7463C55.488 17.7969 55.4627 17.8398 55.4316 17.8748C55.4004 17.906 55.3576 17.9333 55.303 17.9566C55.2524 17.98 55.2017 17.9975 55.1511 18.0092C55.1005 18.0248 55.0362 18.0365 54.9583 18.0443C54.8843 18.0521 54.8161 18.056 54.7538 18.056C54.6914 18.0599 54.6174 18.0618 54.5317 18.0618C54.5161 18.0618 54.4986 18.0618 54.4791 18.0618C54.4597 18.0618 54.4402 18.0618 54.4207 18.0618C54.4012 18.0618 54.3817 18.0618 54.3623 18.0618C54.3467 18.0618 54.3272 18.0618 54.3038 18.0618C54.2844 18.0618 54.2668 18.0618 54.2512 18.0618ZM58.657 18.0618C58.1817 18.0618 57.8058 17.9118 57.5293 17.6119C57.2527 17.3119 57.1144 16.8718 57.1144 16.2913V12.99H56.4366C56.2964 12.99 56.1892 12.9549 56.1152 12.8848C56.0412 12.8108 56.0042 12.7173 56.0042 12.6043C56.0042 12.4913 56.0393 12.3998 56.1094 12.3297C56.1834 12.2596 56.2905 12.2245 56.4307 12.2245H57.1144L57.2722 10.6059C57.2916 10.4579 57.354 10.3352 57.4591 10.2378C57.5682 10.1404 57.6987 10.0917 57.8506 10.0917C57.9792 10.0917 58.0844 10.1307 58.1662 10.2086C58.2519 10.2865 58.2947 10.4014 58.2947 10.5533V12.2245H59.3406C59.4809 12.2245 59.5861 12.2615 59.6562 12.3355C59.7263 12.4095 59.7614 12.503 59.7614 12.616C59.7614 12.729 59.7263 12.8205 59.6562 12.8906C59.5861 12.9568 59.4809 12.99 59.3406 12.99H58.2947V16.0459C58.2947 16.4199 58.3473 16.6965 58.4525 16.8757C58.5577 17.0548 58.7291 17.1444 58.9667 17.1444C58.9862 17.1444 59.0056 17.1444 59.0251 17.1444L59.44 17.1211C59.4517 17.1211 59.4634 17.1211 59.475 17.1211C59.6192 17.1211 59.7321 17.1678 59.8139 17.2613C59.8996 17.3509 59.9425 17.4561 59.9425 17.5768C59.9425 17.6392 59.9328 17.6956 59.9133 17.7463C59.8938 17.7969 59.8685 17.8398 59.8373 17.8748C59.8062 17.906 59.7633 17.9333 59.7088 17.9566C59.6581 17.98 59.6075 17.9975 59.5568 18.0092C59.5062 18.0248 59.4419 18.0365 59.364 18.0443C59.29 18.0521 59.2218 18.056 59.1595 18.056C59.0972 18.0599 59.0232 18.0618 58.9375 18.0618C58.9219 18.0618 58.9044 18.0618 58.8849 18.0618C58.8654 18.0618 58.8459 18.0618 58.8264 18.0618C58.807 18.0618 58.7875 18.0618 58.768 18.0618C58.7524 18.0618 58.733 18.0618 58.7096 18.0618C58.6901 18.0618 58.6726 18.0618 58.657 18.0618ZM63.6646 18.0852C62.7998 18.0774 62.0947 17.8028 61.5494 17.2613C61.0079 16.7159 60.7372 15.9758 60.7372 15.0409C60.7372 14.6436 60.7995 14.2677 60.9241 13.9132C61.0527 13.5587 61.2338 13.2451 61.4676 12.9724C61.7013 12.6958 61.9973 12.4777 62.3557 12.318C62.718 12.1544 63.1192 12.0726 63.5594 12.0726C64.0074 12.0726 64.4028 12.1485 64.7456 12.3005C65.0923 12.4524 65.3669 12.6608 65.5695 12.9257C65.7759 13.1906 65.9317 13.4886 66.0369 13.8197C66.146 14.1469 66.2044 14.5053 66.2122 14.8948C66.2122 15.0234 66.181 15.1285 66.1187 15.2104C66.0564 15.2922 65.9629 15.3331 65.8382 15.3331H61.9233C61.9389 15.9797 62.1123 16.4608 62.4434 16.7763C62.7745 17.0919 63.2088 17.2535 63.7464 17.2613C64.0658 17.2613 64.358 17.2029 64.6229 17.086C64.8878 16.9653 65.1585 16.8036 65.4351 16.601C65.474 16.5738 65.511 16.5543 65.5461 16.5426C65.585 16.527 65.624 16.5192 65.663 16.5192C65.7292 16.5192 65.7896 16.5387 65.8441 16.5777C65.9025 16.6127 65.9473 16.6614 65.9785 16.7237C66.0135 16.7861 66.0311 16.8523 66.0311 16.9224C66.0311 16.9886 66.0155 17.0529 65.9843 17.1152C65.9571 17.1776 65.9123 17.234 65.8499 17.2847C65.2461 17.8184 64.5177 18.0852 63.6646 18.0852ZM61.935 14.6202H65.1955C65.1604 14.1138 65.0124 13.697 64.7514 13.3698C64.4904 13.0386 64.1106 12.8731 63.612 12.8731C63.3549 12.8731 63.1212 12.9237 62.9108 13.025C62.7005 13.1224 62.5271 13.2568 62.3908 13.4282C62.2583 13.5957 62.1532 13.7807 62.0752 13.9833C62.0012 14.1859 61.9545 14.3982 61.935 14.6202ZM68.1405 17.9917C67.9807 17.9917 67.8444 17.945 67.7314 17.8515C67.6185 17.7541 67.562 17.6158 67.562 17.4366V12.7153C67.562 12.5439 67.6204 12.4115 67.7373 12.318C67.858 12.2206 67.9983 12.1719 68.158 12.1719C68.2203 12.1719 68.2787 12.1797 68.3333 12.1953C68.3917 12.207 68.4443 12.2284 68.491 12.2596C68.5417 12.2868 68.5845 12.3199 68.6196 12.3589C68.6585 12.3978 68.6878 12.4465 68.7072 12.505C68.7306 12.5595 68.7423 12.6199 68.7423 12.6861L68.7306 13.4048C68.828 13.0425 69.0247 12.7387 69.3208 12.4933C69.6207 12.2479 69.9674 12.1252 70.3609 12.1252C70.5011 12.1252 70.6102 12.1758 70.6881 12.2771C70.766 12.3784 70.8049 12.4991 70.8049 12.6394C70.8049 12.7679 70.7699 12.8789 70.6998 12.9724C70.6296 13.0659 70.5303 13.1127 70.4018 13.1127C69.8837 13.1127 69.4766 13.2334 69.1805 13.4749C68.8884 13.7165 68.7423 14.0846 68.7423 14.5793V17.4366C68.7423 17.6119 68.6819 17.7482 68.5612 17.8456C68.4404 17.943 68.3002 17.9917 68.1405 17.9917Z" fill="white" />
</svg>