<svg width="22" height="22" viewBox="0 0 22 22" fill="none" xmlns="http://www.w3.org/2000/svg">
    <path d="M10.7139 1.80908C9.89355 1.80908 9.10449 1.91455 8.34668 2.12549C7.58887 2.33643 6.87402 2.63721 6.20215 3.02783C5.53027 3.41846 4.92871 3.8833 4.39746 4.42236C3.86621 4.96143 3.40137 5.56689 3.00293 6.23877C2.60449 6.91064 2.30371 7.62158 2.10059 8.37158C1.89746 9.12158 1.78809 9.91455 1.77246 10.7505C1.77246 11.5708 1.87793 12.3599 2.08887 13.1177C2.2998 13.8755 2.60059 14.5903 2.99121 15.2622C3.38184 15.9341 3.84668 16.5356 4.38574 17.0669C4.9248 17.5981 5.53027 18.063 6.20215 18.4614C6.87402 18.8599 7.58496 19.1606 8.33496 19.3638C9.08496 19.5669 9.87793 19.6763 10.7139 19.6919C11.5342 19.6919 12.3232 19.5864 13.0811 19.3755C13.8389 19.1646 14.5537 18.8638 15.2256 18.4731C15.8975 18.0825 16.499 17.6177 17.0303 17.0786C17.5615 16.5396 18.0264 15.9341 18.4248 15.2622C18.8232 14.5903 19.124 13.8794 19.3271 13.1294C19.5303 12.3794 19.6396 11.5864 19.6553 10.7505C19.6553 9.93018 19.5498 9.14111 19.3389 8.3833C19.1279 7.62549 18.8271 6.91455 18.4365 6.25049C18.0459 5.58643 17.5771 4.98096 17.0303 4.43408C16.4834 3.88721 15.8818 3.42236 15.2256 3.03955C14.5693 2.65674 13.8584 2.35596 13.0928 2.13721C12.3271 1.91846 11.5342 1.80908 10.7139 1.80908ZM10.7139 0.309082C11.6748 0.309082 12.5967 0.434082 13.4795 0.684082C14.3623 0.934082 15.1943 1.28564 15.9756 1.73877C16.7568 2.19189 17.46 2.73486 18.085 3.36768C18.71 4.00049 19.2568 4.70752 19.7256 5.48877C20.1943 6.27002 20.5459 7.09814 20.7803 7.97314C21.0146 8.84814 21.1396 9.77393 21.1553 10.7505C21.1553 11.7114 21.0303 12.6333 20.7803 13.5161C20.5303 14.3989 20.1787 15.231 19.7256 16.0122C19.2725 16.7935 18.7295 17.4966 18.0967 18.1216C17.4639 18.7466 16.7568 19.2935 15.9756 19.7622C15.1943 20.231 14.3662 20.5825 13.4912 20.8169C12.6162 21.0513 11.6904 21.1763 10.7139 21.1919C9.75293 21.1919 8.83105 21.0669 7.94824 20.8169C7.06543 20.5669 6.2334 20.2153 5.45215 19.7622C4.6709 19.3091 3.96777 18.7661 3.34277 18.1333C2.71777 17.5005 2.1709 16.7935 1.70215 16.0122C1.2334 15.231 0.881836 14.4028 0.647461 13.5278C0.413086 12.6528 0.288086 11.7271 0.272461 10.7505C0.272461 9.78955 0.397461 8.86768 0.647461 7.98486C0.897461 7.10205 1.24902 6.27002 1.70215 5.48877C2.15527 4.70752 2.69824 4.00439 3.33105 3.37939C3.96387 2.75439 4.6709 2.20752 5.45215 1.73877C6.2334 1.27002 7.06152 0.918457 7.93652 0.684082C8.81152 0.449707 9.7373 0.324707 10.7139 0.309082ZM9.68262 16.2114L8.62793 15.1567L12.9639 10.8091L8.62793 6.46143L9.68262 5.40674L15.085 10.8091L9.68262 16.2114Z" fill="#BDC1CA" />
</svg>