<svg width="21" height="22" viewBox="0 0 21 22" fill="none" xmlns="http://www.w3.org/2000/svg">
    <path d="M10.4414 19.6919C11.2617 19.6919 12.0508 19.5864 12.8086 19.3755C13.5664 19.1646 14.2813 18.8638 14.9531 18.4731C15.625 18.0825 16.2266 17.6177 16.7578 17.0786C17.2891 16.5396 17.7539 15.9341 18.1523 15.2622C18.5508 14.5903 18.8516 13.8794 19.0547 13.1294C19.2578 12.3794 19.3672 11.5864 19.3828 10.7505C19.3828 9.93018 19.2773 9.14111 19.0664 8.3833C18.8555 7.62549 18.5547 6.91064 18.1641 6.23877C17.7734 5.56689 17.3086 4.96533 16.7695 4.43408C16.2305 3.90283 15.625 3.43799 14.9531 3.03955C14.2813 2.64111 13.5703 2.34033 12.8203 2.13721C12.0703 1.93408 11.2773 1.82471 10.4414 1.80908C9.6211 1.80908 8.83203 1.91455 8.07422 2.12549C7.31641 2.33642 6.60156 2.63721 5.92969 3.02783C5.25781 3.41846 4.65625 3.8833 4.125 4.42236C3.59375 4.96142 3.12891 5.56689 2.73047 6.23877C2.33203 6.91064 2.03125 7.62158 1.82813 8.37158C1.625 9.12158 1.51563 9.91455 1.5 10.7505C1.5 11.5708 1.60547 12.3599 1.81641 13.1177C2.02734 13.8755 2.32813 14.5864 2.71875 15.2505C3.10938 15.9145 3.57813 16.52 4.125 17.0669C4.67188 17.6138 5.27344 18.0786 5.92969 18.4614C6.58594 18.8442 7.29688 19.145 8.0625 19.3638C8.82813 19.5825 9.62109 19.6919 10.4414 19.6919ZM10.4414 21.1919C9.48047 21.1919 8.55859 21.0669 7.67578 20.8169C6.79297 20.5669 5.96094 20.2153 5.17969 19.7622C4.39844 19.3091 3.69531 18.7661 3.07031 18.1333C2.44531 17.5005 1.89844 16.7935 1.42969 16.0122C0.960938 15.231 0.609376 14.4028 0.375001 13.5278C0.140626 12.6528 0.0156258 11.727 9.12817e-07 10.7505C9.96825e-07 9.78955 0.125001 8.86767 0.375001 7.98486C0.625001 7.10205 0.976564 6.27002 1.42969 5.48877C1.88281 4.70752 2.42578 4.00439 3.0586 3.37939C3.69141 2.75439 4.39844 2.20752 5.17969 1.73877C5.96094 1.27002 6.78906 0.918456 7.66406 0.684081C8.53906 0.449706 9.46485 0.324706 10.4414 0.309081C11.4023 0.309081 12.3242 0.434081 13.207 0.684081C14.0898 0.934081 14.9219 1.28564 15.7031 1.73877C16.4844 2.19189 17.1875 2.73486 17.8125 3.36768C18.4375 4.00049 18.9844 4.70752 19.4531 5.48877C19.9219 6.27002 20.2734 7.09814 20.5078 7.97314C20.7422 8.84814 20.8672 9.77393 20.8828 10.7505C20.8828 11.7114 20.7578 12.6333 20.5078 13.5161C20.2578 14.3989 19.9063 15.231 19.4531 16.0122C19 16.7935 18.457 17.4966 17.8242 18.1216C17.1914 18.7466 16.4844 19.2935 15.7031 19.7622C14.9219 20.231 14.0938 20.5825 13.2188 20.8169C12.3438 21.0513 11.418 21.1763 10.4414 21.1919ZM11.4727 5.28955L12.5273 6.34424L8.19141 10.6919L12.5273 15.0396L11.4727 16.0942L6.07031 10.6919L11.4727 5.28955Z" fill="#BDC1CA" />
</svg>